Coordinates
version=1
nRows=27
nColumns=19
inDegrees=yes

Units are S.I. units (second, meters, Newtons, ...)
If the header above contains a line with 'inDegrees', this indicates whether rotational values are in degrees (yes) or radians (no).

endheader
time	pelvis_to_ground_rx	pelvis_to_ground_ry	pelvis_to_ground_rz	pelvis_to_ground_tx	pelvis_to_ground_ty	pelvis_to_ground_tz	left_hip_abduction	left_hip_rotation	left_hip_flexion	left_knee_flexion	left_ankle_flexion	left_subtalar_angle	right_hip_abduction	right_hip_rotation	right_hip_flexion	right_knee_flexion	right_ankle_flexion	right_subtalar_angle
      2.47000000	     83.75370153	      6.78883771	     -6.03209611	      0.52526303	     -0.76144422	      0.73096820	     -6.77456036	     11.55352568	     37.11841681	    -74.10323163	      2.10109754	    -15.16756550	     10.17315075	      7.46114690	      7.68825572	    -12.72988195	      1.15520362	     -6.80168010
      2.48000000	     83.66320238	      6.85496493	     -5.89180776	      0.53426412	     -0.76167648	      0.73055142	     -7.10051446	     11.23978654	     38.90046691	    -73.49066176	      2.34870391	    -15.78775601	     10.41195474	      7.51132561	      6.78331749	    -12.74820514	      1.49688687	     -6.59362126
      2.49000000	     83.58468370	      6.85764332	     -5.77621799	      0.54327236	     -0.76181326	      0.72999400	     -7.38919427	     10.93522304	     40.61785342	    -72.63681721	      2.42718381	    -15.95599921	     10.63359785	      7.58909763	      5.90868629	    -12.78180987	      1.62451747	     -6.52306411
      2.50000000	     83.51649284	      6.79825744	     -5.68670336	      0.55232841	     -0.76184328	      0.72927181	     -7.63165789	     10.64374660	     42.25626773	    -71.53917111	      2.55413800	    -16.17974543	     10.84062787	      7.58921843	      5.09739611	    -12.89184067	      1.84859214	     -6.45103349
      2.51000000	     83.45418872	      6.68318029	     -5.60051212	      0.56148012	     -0.76178819	      0.72841585	     -7.80411282	     10.36150231	     43.76343295	    -70.17763597	      2.61528435	    -16.31869402	     11.04084158	      7.56902901	      4.29209563	    -13.02506498	      2.10559256	     -6.37121008
      2.52000000	     83.44154800	      6.50327975	     -5.50477479	      0.57077120	     -0.76160540	      0.72744498	     -7.94108071	     10.08641349	     45.07813189	    -68.51814401	      2.52062402	    -16.35541103	     11.18355004	      7.51053629	      3.49234755	    -13.23160552	      2.72076404	     -6.10057123
      2.53000000	     83.41210198	      6.30429942	     -5.40730743	      0.58025735	     -0.76134961	      0.72637502	     -7.95034314	      9.75777483	     46.19871124	    -66.58298188	      2.49359620	    -16.28052418	     11.34861825	      7.51834291	      2.65679224	    -13.41128291	      2.79028227	     -6.05840211
      2.54000000	     83.42563898	      6.00944647	     -5.42165604	      0.58996152	     -0.76095919	      0.72524123	     -7.94261111	      9.50288562	     47.22819621	    -64.35925978	      2.11920726	    -15.60779777	     11.44347822	      7.63657822	      1.93215784	    -13.64985746	      3.26383974	     -5.91764243
      2.55000000	     83.47267847	      5.70664490	     -5.32869039	      0.59998552	     -0.76045863	      0.72400051	     -7.80620648	      9.15710133	     47.87023995	    -61.86171547	      2.10623644	    -15.49437848	     11.51210890	      7.69798269	      1.08246925	    -13.92514162	      3.31118139	     -5.89951828
      2.56000000	     83.52385970	      5.35522238	     -5.31680272	      0.61030123	     -0.75986521	      0.72269826	     -7.56141535	      8.77246057	     48.34314174	    -59.13838195	      1.48674446	    -14.15546794	     11.57902313	      7.99756904	      0.29597342	    -14.26088777	      3.82727797	     -5.81862913
      2.57000000	     83.61309774	      4.95621236	     -5.24619899	      0.62102575	     -0.75913666	      0.72129209	     -7.22610748	      8.38403937	     48.49146351	    -56.25966785	      1.74941905	    -12.46887835	     11.60841200	      8.31952095	     -0.55877582	    -14.67846672	      4.20414349	     -5.48375727
      2.58000000	     83.70202463	      4.58892684	     -5.04407351	      0.63215992	     -0.75833640	      0.71974158	     -6.66853281	      7.77792589	     48.21082217	    -53.28426190	      1.41099198	    -12.02174705	     11.66524689	      8.58615198	     -1.54290353	    -15.18479532	      4.31904063	     -5.49607824
      2.59000000	     83.87904083	      4.14750532	     -4.79653091	      0.64372934	     -0.75737899	      0.71808866	     -6.11328675	      7.21737462	     47.64981457	    -50.30114115	      0.70346973	    -11.11084196	     11.62547969	      8.87022091	     -2.53565572	    -15.87779146	      4.54404594	     -5.50881962
      2.60000000	     84.07082281	      3.73452491	     -4.53204247	      0.65571508	     -0.75634686	      0.71631287	     -5.40777740	      6.42696550	     46.84779499	    -47.43261909	      0.31262284	    -10.42863803	     11.58152990	      9.10293161	     -3.49670964	    -16.73735458	      4.67252983	     -5.46350624
      2.61000000	     84.31246640	      3.32223829	     -4.23219470	      0.66810541	     -0.75522313	      0.71443015	     -4.66202611	      5.52491020	     45.85106991	    -44.79270826	     -0.07524243	     -9.76649027	     11.49187686	      9.27024906	     -4.42539983	    -17.79939570	      4.77868139	     -5.38267019
      2.62000000	     84.62026788	      2.93293726	     -3.91800994	      0.68086356	     -0.75402588	      0.71246440	     -3.92856129	      4.49106217	     44.72933398	    -42.48281993	     -0.35317807	     -9.28927070	     11.33212394	      9.31819443	     -5.27232717	    -19.08983448	      4.81488045	     -5.28041422
      2.63000000	     85.00195312	      2.57895443	     -3.65476471	      0.69392668	     -0.75275123	      0.71045997	     -3.25798725	      3.31367830	     43.59888181	    -40.58755492	     -0.45339099	     -9.06022491	     11.07342686	      9.22029457	     -5.94421748	    -20.61945182	      4.76543444	     -5.23841250
      2.64000000	     85.51219205	      2.26094235	     -3.36348131	      0.70725960	     -0.75139873	      0.70843763	     -2.80713147	      2.14021529	     42.44208104	    -39.17961857	     -0.53328610	     -8.93578690	     10.64346100	      8.86675457	     -6.48865508	    -22.42064918	      4.63226456	     -5.18817134
      2.65000000	     86.14707091	      1.99436041	     -3.12498670	      0.72077641	     -0.74997072	      0.70644890	     -2.60919088	      0.97104985	     41.37446401	    -38.28789996	     -0.53575401	     -8.95792622	     10.02729439	      8.26782747	     -6.80383285	    -24.48504822	      4.39203714	     -5.13100489
      2.66000000	     86.90188361	      1.79609333	     -2.90942388	      0.73443162	     -0.74847579	      0.70456766	     -2.65763247	     -0.23140537	     40.35107157	    -37.86877355	     -0.38040566	     -9.63850487	      9.24380807	      7.44044499	     -6.93885069	    -26.74920685	      3.58784312	     -4.81352397
      2.67000000	     87.80407771	      1.62815725	     -2.85288231	      0.74812185	     -0.74685334	      0.70278711	     -3.07918053	     -1.25515512	     39.56916631	    -37.93370999	     -0.18251492	    -10.61233885	      8.19471503	      6.33181538	     -6.67866921	    -29.29933659	      2.78022529	     -4.78752292
      2.68000000	     88.83576242	      1.53096377	     -2.82257861	      0.76183098	     -0.74515846	      0.70118100	     -3.80420202	     -2.20683130	     38.82857454	    -38.35290628	      0.11614715	    -11.45893464	      6.98064831	      5.03509042	     -6.23473838	    -32.00528435	      1.84288524	     -4.88159650
      2.69000000	     89.94439006	      1.51999438	     -2.82852129	      0.77548963	     -0.74342408	      0.69973286	     -4.79884299	     -3.00071633	     38.16414463	    -39.08874787	      0.11561678	    -12.81489917	      5.65102880	      3.51115956	     -5.58578267	    -34.84271692	      0.45516897	     -5.75018362
      2.70000000	     91.14316495	      1.55211932	     -2.89621591	      0.78905306	     -0.74161466	      0.69851833	     -6.07305670	     -3.55983378	     37.55563850	    -40.00125593	      0.79311733	    -13.37384206	      4.19867483	      1.81444241	     -4.70134114	    -37.81072548	     -0.68426232	     -5.75109154
      2.71000000	     92.38588887	      1.64611114	     -2.97318433	      0.80246945	     -0.73978506	      0.69756042	     -7.52065297	     -3.94455785	     36.91060319	    -40.96561398	      1.51530056	    -13.97393031	      2.71594237	      0.00881161	     -3.66792228	    -40.82608878	     -2.06785678	     -6.08894325
      2.72000000	     93.64700091	      1.80165165	     -3.08751720	      0.81568440	     -0.73796055	      0.69692298	     -9.06999950	     -4.17899863	     36.22018773	    -41.85306764	      2.22829646	    -14.46664528	      1.25384105	     -1.86184772	     -2.46365152	    -43.84518997	     -3.52416842	     -6.69120191
      2.73000000	     94.89328410	      2.00606810	     -3.25995146	      0.82864329	     -0.73617099	      0.69665902	    -10.64471856	     -4.27984343	     35.48472470	    -42.57018306	      2.93629653	    -14.78489903	     -0.12337903	     -3.73858453	     -1.06941203	    -46.82488269	     -4.97207370	     -7.53104176
